# xmcd
#
# Track frame offsets:
#	150
#	19727
#	39442
#	59487
#	89480
#	101055
#	126252
#	139955
#	154782
#	175060
#	195562
#	210022
#	224459
#
# Disc length: 3246 seconds
#
# Revision: 0
# Processed by: cddbd v1.5.2PL0 Copyright (c) Steve Scherf et al.
# Submitted via: dBpowerAMP V4.0
#
DISCID=b60cac0d
DTITLE=Dale Inskeep - Saltwater Cowboy
DYEAR=2007
DGENRE=Country Surfing
TTITLE0=Come On Down
TTITLE1=Hanging OutThen I'm Gone
TTITLE2=Saltwater Courty
TTITLE3=I Don't Want to Leave
TTITLE4=Keeps Getting Better
TTITLE5=Bad Times Weren't Bad
TTITLE6=Gonna Take A Holiday
TTITLE7=Hole In The Dccan
TTITLE8=Home Is Where The heart Is (Feeling Home)
TTITLE9=Fire
TTITLE10=The Fog Comme's Rolling In
TTITLE11=A Chill in The Air Tonight
TTITLE12=Carry On Home
EXTD=we like to relate to this album as Country Surfing Music
EXTT0=
EXTT1=
EXTT2=
EXTT3=
EXTT4=
EXTT5=
EXTT6=
EXTT7=
EXTT8=
EXTT9=
EXTT10=
EXTT11=
EXTT12=
PLAYORDER=
